<?xml version="1.0" standalone="no"?>
<!DOCTYPE svg PUBLIC "-//W3C//DTD SVG 20010904//EN"
 "http://www.w3.org/TR/2001/REC-SVG-20010904/DTD/svg10.dtd">
<svg version="1.0" xmlns="http://www.w3.org/2000/svg"
 width="700.000000pt" height="700.000000pt" viewBox="0 0 700.000000 700.000000"
 preserveAspectRatio="xMidYMid meet">
<metadata>
Created by potrace 1.14, written by Peter Selinger 2001-2017
</metadata>
<g transform="translate(0.000000,700.000000) scale(0.100000,-0.100000)"
fill="#000000" stroke="none">
<path d="M1770 6985 c-216 -38 -300 -102 -415 -315 -169 -313 -207 -368 -311
-454 -74 -61 -180 -119 -331 -180 -283 -115 -337 -144 -408 -219 -41 -45 -87
-147 -100 -222 -32 -198 45 -359 283 -595 184 -182 291 -268 449 -359 249
-144 624 -294 973 -390 41 -12 89 -25 105 -31 53 -16 227 -58 331 -80 55 -11
111 -23 125 -26 13 -3 56 -11 94 -17 75 -14 76 -21 5 -32 -25 -4 -90 -16 -145
-27 -85 -17 -126 -26 -235 -52 -8 -2 -28 -7 -45 -11 -351 -82 -834 -255 -1093
-392 -240 -126 -344 -204 -565 -421 -248 -243 -327 -424 -274 -627 49 -187
124 -255 412 -373 431 -175 502 -237 690 -597 148 -285 211 -338 457 -391 35
-7 160 -7 209 1 151 23 325 120 548 303 223 184 350 334 495 586 123 212 227
445 312 692 48 142 64 177 58 127 -5 -38 -5 -505 0 -568 2 -27 7 -92 11 -143
3 -51 8 -101 9 -110 2 -9 7 -51 12 -92 4 -41 8 -77 9 -80 1 -3 5 -30 9 -60
101 -699 373 -1336 721 -1686 105 -106 171 -139 271 -138 98 2 177 41 283 143
104 99 141 172 138 270 -4 112 -28 149 -244 374 -308 321 -599 768 -753 1158
-49 123 -130 373 -144 443 -3 12 -11 50 -20 86 -22 93 -57 297 -56 325 1 6 23
-50 51 -124 27 -73 56 -147 63 -165 8 -17 33 -74 56 -126 156 -357 352 -642
574 -839 69 -61 244 -199 268 -212 13 -6 25 -15 28 -19 10 -14 156 -89 210
-108 95 -34 137 -42 227 -43 123 0 261 34 342 85 75 47 152 159 256 366 80
161 176 283 281 359 61 43 201 112 349 171 309 123 392 194 441 378 59 224
-32 410 -347 707 -172 162 -278 237 -492 349 -350 184 -940 375 -1447 470 -14
3 -49 9 -79 15 -29 6 -56 11 -60 12 -3 0 39 9 94 19 193 35 426 89 621 146
161 46 452 142 469 154 8 5 100 42 115 46 37 8 296 133 390 188 170 99 256
165 429 331 188 182 286 324 318 465 5 24 4 132 -2 165 -3 17 -17 64 -32 105
-48 137 -130 196 -448 325 -125 51 -271 120 -285 135 -3 3 -24 18 -46 33 -104
70 -182 179 -315 435 -106 205 -180 281 -316 326 -229 75 -427 44 -658 -102
-171 -109 -433 -342 -539 -480 -253 -331 -490 -866 -631 -1427 -1 -5 -6 -29
-10 -52 -9 -52 -20 -55 -28 -7 -9 54 -75 297 -109 397 -30 91 -93 270 -105
297 -3 8 -7 17 -8 20 -36 105 -181 401 -265 540 -106 176 -172 262 -290 380
-98 98 -127 122 -340 290 -48 38 -200 119 -267 143 -115 41 -220 51 -333 32z"/>
</g>
</svg>
